# xmcd
#
# Track frame offsets:
#	150
#	17276
#	30222
#	45302
#	58585
#	74386
#	86158
#	101318
#	115504
#	129597
#	143016
#	154090
#
# Disc length: 2257 seconds
#
# Revision: 0
# Processed by: cddbd v1.5.2PL0 Copyright (c) Steve Scherf et al.
# Submitted via: EasyCDDAExtractor 16.0.1.1
#
DISCID=8708cf0c
DTITLE=Ernest Tubb - On Tour
DYEAR=1962
DGENRE=Country
TTITLE0=Ernest Tubb - Intro;Women Make A Fool Out Of Me
TTITLE1=Ernest Tubb - Go On Home
TTITLE2=Ernest Tubb - Steel Guitar Rag [instrumental]
TTITLE3=Ernest Tubb [voc Johnny Johnson and Leon Rhodes] - Old Love  New Tears
TTITLE4=Ernest Tubb - Try Me One More Time
TTITLE5=Ernest Tubb - Lover's Waltz [instrumental]
TTITLE6=Ernest Tubb - Drivin' Nails In My Coffin'
TTITLE7=Ernest Tubb [voc Leon Rhodes] - Out Of My Mind
TTITLE8=Ernest Tubb - Redskin Rag [instrumental]
TTITLE9=Ernest Tubb - Watching My Past Go By
TTITLE10=Ernest Tubb [voc Leon Rhodes] - Bandera Waltz
TTITLE11=Ernest Tubb - In And Out (Of Every Heart In Town)
EXTD=
EXTT0=
EXTT1=
EXTT2=
EXTT3=
EXTT4=
EXTT5=
EXTT6=
EXTT7=
EXTT8=
EXTT9=
EXTT10=
EXTT11=
PLAYORDER=
